<svg width="17" height="15" viewBox="0 0 17 15" fill="none" xmlns="http://www.w3.org/2000/svg">
<path d="M16.7471 2.49701C16.1557 2.7591 15.5203 2.93618 14.8523 3.01622C15.5415 2.60383 16.0572 1.95476 16.303 1.19014C15.6555 1.57476 14.9468 1.84549 14.2077 1.99056C13.7108 1.45992 13.0525 1.1082 12.3351 0.990017C11.6178 0.87183 10.8815 0.993784 10.2405 1.33694C9.59959 1.6801 9.08987 2.22527 8.79051 2.88781C8.49116 3.55034 8.41891 4.29317 8.58499 5.00097C7.27293 4.9351 5.98939 4.59407 4.81766 4.00003C3.64594 3.40599 2.61221 2.57221 1.78357 1.55281C1.50024 2.04156 1.33732 2.60822 1.33732 3.21172C1.33701 3.75501 1.47079 4.28998 1.72682 4.76916C1.98284 5.24834 2.35319 5.65692 2.80499 5.95864C2.28102 5.94197 1.76861 5.80039 1.3104 5.54568V5.58818C1.31035 6.35016 1.57393 7.0887 2.05641 7.67847C2.53889 8.26824 3.21056 8.67292 3.95745 8.82385C3.47138 8.9554 2.96177 8.97477 2.46711 8.88052C2.67784 9.53616 3.08832 10.1095 3.64108 10.5203C4.19385 10.931 4.86122 11.1586 5.54978 11.1713C4.38091 12.0888 2.93737 12.5866 1.45136 12.5844C1.18813 12.5845 0.925125 12.5691 0.663696 12.5383C2.17208 13.5082 3.92794 14.0229 5.7212 14.0209C11.7916 14.0209 15.1102 8.99314 15.1102 4.63264C15.1102 4.49097 15.1066 4.34789 15.1002 4.20622C15.7457 3.73941 16.3029 3.16136 16.7457 2.49914L16.7471 2.49701Z" fill="white"/>
</svg>
